# xmcd
#
# Track frame offsets: 
#        150
#        27360
#        44404
#        59862
#        72335
#        91818
#        107672
#        124468
#        142214
#        159492
#
# Disc length: 2420 seconds
#
# Revision: 1
# Processed by: cddbd v1.5.2PL0 Copyright (c) Steve Scherf et al.
# Submitted via: ExactAudioCopyFreeDBPlugin 1.0
#
DISCID=9809720a
DTITLE=Ian Tyson - Yellowhead to Yellowstone and other Love Stories
DYEAR=2008
DGENRE=Country
TTITLE0=Yellowhead to Yellowstone
TTITLE1=Fiddler must be Paid
TTITLE2=Lioness
TTITLE3=Ross Knox
TTITLE4=Blaino's Song
TTITLE5=Estrangement
TTITLE6=My Cherry Colored Rose
TTITLE7=Bill Kane
TTITLE8=Go this Far
TTITLE9=Love Never comes at all
EXTD=
EXTT0=
EXTT1=
EXTT2=
EXTT3=
EXTT4=
EXTT5=
EXTT6=
EXTT7=
EXTT8=
EXTT9=
PLAYORDER=
